<svg width="1200" height="800" viewBox="0 0 1200 800" fill="none" xmlns="http://www.w3.org/2000/svg">
  <!-- Luxury warm background -->
  <rect width="1200" height="800" fill="#FAF8F5"/>

  <!-- Vineyard landscape icon -->
  <!-- Hills -->
  <path d="M0 500 Q300 400 600 500 Q900 600 1200 500 L1200 800 L0 800 Z" fill="#722F37" opacity="0.08"/>
  <path d="M0 550 Q400 450 800 550 Q1000 600 1200 550 L1200 800 L0 800 Z" fill="#722F37" opacity="0.06"/>

  <!-- Sun -->
  <circle cx="600" cy="300" r="60" fill="#722F37" opacity="0.12"/>
  <circle cx="600" cy="300" r="60" stroke="#722F37" stroke-width="3" fill="none"/>

  <!-- Vine rows -->
  <line x1="300" y1="500" x2="320" y2="550" stroke="#722F37" stroke-width="2" opacity="0.3"/>
  <line x1="400" y1="480" x2="420" y2="530" stroke="#722F37" stroke-width="2" opacity="0.3"/>
  <line x1="500" y1="500" x2="520" y2="550" stroke="#722F37" stroke-width="2" opacity="0.3"/>
  <line x1="600" y1="490" x2="620" y2="540" stroke="#722F37" stroke-width="2" opacity="0.3"/>
  <line x1="700" y1="500" x2="720" y2="550" stroke="#722F37" stroke-width="2" opacity="0.3"/>
  <line x1="800" y1="510" x2="820" y2="560" stroke="#722F37" stroke-width="2" opacity="0.3"/>
  <line x1="900" y1="500" x2="920" y2="550" stroke="#722F37" stroke-width="2" opacity="0.3"/>

  <!-- "Image unavailable" text -->
  <text x="600" y="680" font-family="serif" font-size="18" fill="#8B4513" text-anchor="middle" opacity="0.6">
    Image unavailable
  </text>
</svg>
